<?xml version="1.0" standalone="no"?><!DOCTYPE svg PUBLIC "-//W3C//DTD SVG 1.1//EN" "http://www.w3.org/Graphics/SVG/1.1/DTD/svg11.dtd"><svg t="1609332244765" class="icon" viewBox="0 0 1024 1024" version="1.1" xmlns="http://www.w3.org/2000/svg" p-id="3872" xmlns:xlink="http://www.w3.org/1999/xlink" width="200" height="200"><defs><style type="text/css"></style></defs><path d="M522.8 113.2c-226.2 0-409.6 183.4-409.6 409.6 0 226.2 183.4 409.6 409.6 409.6 226.2 0 409.6-183.4 409.6-409.6-0.1-226.2-183.4-409.6-409.6-409.6z m148.4 512c0 12.2-4.9 23.9-13.5 32.6-8.6 8.6-20.4 13.5-32.6 13.5H420.3c-12.2 0-23.9-4.9-32.6-13.5-8.6-8.6-13.5-20.4-13.5-32.6V420.4c0-12.2 4.9-23.9 13.5-32.6 8.6-8.6 20.4-13.5 32.6-13.5h204.8c12.2 0 23.9 4.9 32.6 13.5 8.6 8.6 13.5 20.4 13.5 32.6v204.8z m0 0" fill="#d81e06" p-id="3873"></path></svg>